<svg id="Frame_1017" data-name="Frame 1017" xmlns="http://www.w3.org/2000/svg" width="48" height="48" viewBox="0 0 48 48">
  <rect id="Frame_1017_Background_Mask_" data-name="Frame 1017 (Background/Mask)" width="48" height="48" rx="24" fill="#e6e8ec"/>
  <g id="icons_File_Upload_Line" data-name="icons/File Upload/Line" transform="translate(14.258 14)">
    <path id="Shape" d="M14.984,16H4.5A4.008,4.008,0,0,1,.508,12.25l-.5-8A4,4,0,0,1,4,0H15.484a4,4,0,0,1,3.992,4.25l-.5,8A4.007,4.007,0,0,1,14.984,16ZM4,2A2,2,0,0,0,2,4.125l.5,8A2,2,0,0,0,4.5,14H14.984a2,2,0,0,0,2-1.876l.5-8a2,2,0,0,0-2-2.125Z" transform="translate(0 4)" fill="#777e90"/>
    <path id="Shape-2" data-name="Shape" d="M5,0a5,5,0,0,1,5,5V7A1,1,0,0,1,8,7V5A3,3,0,0,0,2,5V7A1,1,0,0,1,0,7V5A5,5,0,0,1,5,0Z" transform="translate(4.742)" fill="#777e90"/>
  </g>
</svg>
