<svg id="icons_Star_Filled_Copy" data-name="icons/Star/Filled Copy" xmlns="http://www.w3.org/2000/svg" width="14.666" height="12" viewBox="0 0 14.666 12">
  <path id="Shape" d="M11.333,6.667A.667.667,0,1,1,12,6,.667.667,0,0,1,11.333,6.667ZM6,6.667A.667.667,0,1,1,6.667,6,.667.667,0,0,1,6,6.667Zm-5.333,0A.667.667,0,1,1,1.333,6,.667.667,0,0,1,.667,6.667ZM11.333,4A.667.667,0,1,1,12,3.334.667.667,0,0,1,11.333,4ZM6,4a.667.667,0,1,1,.667-.667A.667.667,0,0,1,6,4Zm5.333-2.667A.667.667,0,1,1,12,.667.667.667,0,0,1,11.333,1.333Z" transform="translate(1.333 5.333)" fill="#fcfcfd"/>
  <path id="Shape-2" data-name="Shape" d="M2,9.334a2,2,0,1,1,2-2A2,2,0,0,1,2,9.334ZM2,6.667a.667.667,0,1,0,.667.667A.667.667,0,0,0,2,6.667Zm5.333,0a2,2,0,1,1,2-2A2,2,0,0,1,7.333,6.667ZM7.333,4A.667.667,0,1,0,8,4.667.667.667,0,0,0,7.333,4Zm5.333,0a2,2,0,1,1,2-2A2,2,0,0,1,12.667,4Zm0-2.667A.667.667,0,1,0,13.333,2,.667.667,0,0,0,12.667,1.333Z" fill="#fcfcfd"/>
</svg>
