<svg id="icons_Circle_and_Square_Filled" data-name="icons/Circle and Square/Filled" xmlns="http://www.w3.org/2000/svg" width="12.895" height="12.895" viewBox="0 0 12.895 12.895">
  <path id="Shape" d="M1.962,4.851a1.257,1.257,0,0,1-1.778,0,.629.629,0,0,1,0-.889L3.962.184a.629.629,0,0,1,.889,0,1.257,1.257,0,0,1,0,1.778Z" transform="translate(7.676 7.676)" fill="#23262f"/>
  <path id="Shape-2" data-name="Shape" d="M4.353,5.351a.333.333,0,0,0-.083-.138l-3.7-3.7a.333.333,0,0,0-.352-.077L0,1.513.78,6.943A4,4,0,0,0,3.048,10l2.615,1.22a.667.667,0,0,0,.753-.133l4.673-4.673a.667.667,0,0,0,.133-.753L10,3.048A4,4,0,0,0,6.943.78L1.513,0,1.434.216a.333.333,0,0,0,.077.352l3.7,3.7a.333.333,0,0,0,.138.083l.188.058a.333.333,0,0,0,.117.014l.1-.006A1.333,1.333,0,1,1,4.42,5.753l.006-.1a.333.333,0,0,0-.014-.117Z" transform="translate(-0.004 -0.004)" fill="#23262f"/>
</svg>
