<svg id="icons_User_Line" data-name="icons/User/Line" xmlns="http://www.w3.org/2000/svg" width="16.667" height="16.667" viewBox="0 0 16.667 16.667">
  <path id="Shape" d="M5.031,1.666c-1.037.039-1.794.094-2.336.148a.932.932,0,0,0-.911.825,19.219,19.219,0,0,0-.118,2.3,19.219,19.219,0,0,0,.118,2.3.932.932,0,0,0,.911.825c1.007.1,2.747.2,5.638.2s4.631-.1,5.638-.2a.932.932,0,0,0,.911-.825A19.219,19.219,0,0,0,15,4.944a19.219,19.219,0,0,0-.118-2.3.932.932,0,0,0-.911-.825c-.543-.054-1.3-.109-2.336-.148A.833.833,0,1,1,11.7,0c1.064.04,1.856.1,2.438.155a2.6,2.6,0,0,1,2.4,2.282,20.854,20.854,0,0,1,.13,2.507,20.853,20.853,0,0,1-.13,2.507,2.6,2.6,0,0,1-2.4,2.282c-1.079.107-2.877.212-5.8.212s-4.724-.1-5.8-.212A2.6,2.6,0,0,1,.13,7.451,20.853,20.853,0,0,1,0,4.944,20.854,20.854,0,0,1,.13,2.437,2.6,2.6,0,0,1,2.53.156C3.113.1,3.9.041,4.969,0a.833.833,0,1,1,.063,1.665Z" transform="translate(6.722 16.667) rotate(-90)" fill="#3f78ff"/>
  <path id="Shape-2" data-name="Shape" d="M4.339,7.256a.833.833,0,0,1-1.179,0L.244,4.339a.833.833,0,0,1,0-1.179L3.161.244A.833.833,0,1,1,4.339,1.423L2.845,2.917h7.988a.833.833,0,0,1,0,1.667H2.845L4.339,6.077A.833.833,0,0,1,4.339,7.256Z" transform="translate(0 4.583)" fill="#3f78ff"/>
</svg>
