<svg id="icons_User_Line" data-name="icons/User/Line" xmlns="http://www.w3.org/2000/svg" width="15" height="18.333" viewBox="0 0 15 18.333">
  <path id="Shape" d="M1.667,7.5V9.167A.833.833,0,1,1,0,9.167V7.5a7.5,7.5,0,0,1,15,0V9.167a.833.833,0,1,1-1.667,0V7.5a5.833,5.833,0,1,0-11.667,0Z" transform="translate(0 8.333)" fill="#3f78ff"/>
  <path id="Shape-2" data-name="Shape" d="M5,10a5,5,0,1,1,5-5A5.006,5.006,0,0,1,5,10ZM5,1.666A3.333,3.333,0,1,0,8.333,5,3.338,3.338,0,0,0,5,1.666Z" transform="translate(2.5)" fill="#3f78ff"/>
</svg>
