<svg id="icons_User_Line" data-name="icons/User/Line" xmlns="http://www.w3.org/2000/svg" width="13.333" height="20" viewBox="0 0 13.333 20">
  <path id="Shape" d="M1.667,2.5a.833.833,0,0,0,.833.833H4.167A.833.833,0,0,0,5,2.5V0H6.667V2.5A2.5,2.5,0,0,1,4.167,5H2.5A2.5,2.5,0,0,1,0,2.5V0H1.667Z" transform="translate(3.333 15)" fill="#777e90"/>
  <path id="Shape-2" data-name="Shape" d="M8.333,15.833H5a2.5,2.5,0,0,1-2.5-2.5V11.871a6.667,6.667,0,1,1,8.333,0v1.462A2.5,2.5,0,0,1,8.333,15.833ZM6.667,1.666a5,5,0,0,0-3.125,8.9l.625.5v2.263A.834.834,0,0,0,5,14.167H8.333a.834.834,0,0,0,.833-.833V11.071l.625-.5a5,5,0,0,0-3.125-8.9Z" fill="#777e90"/>
  <path id="Shape-3" data-name="Shape" d="M.244.244a.833.833,0,0,0,0,1.179L1.667,2.845V7.5H3.333V2.845L4.756,1.423A.833.833,0,0,0,3.577.244L2.5,1.321,1.423.244A.833.833,0,0,0,.244.244Z" transform="translate(4.167 6.667)" fill="#777e90"/>
</svg>
