<svg id="icons_Star_Filled_Copy" data-name="icons/Star/Filled Copy" xmlns="http://www.w3.org/2000/svg" width="13.333" height="13.333" viewBox="0 0 13.333 13.333">
  <path id="Shape" d="M6.667,13.333A.667.667,0,0,1,6,12.667v-2a.667.667,0,0,1,1.333,0v2A.667.667,0,0,1,6.667,13.333Zm4.243-1.757a.661.661,0,0,1-.471-.2L9.024,9.967a.667.667,0,1,1,.943-.943l1.414,1.414a.667.667,0,0,1-.472,1.138Zm-8.485,0a.667.667,0,0,1-.472-1.138L3.367,9.023a.667.667,0,0,1,.943.943L2.9,11.381A.663.663,0,0,1,2.424,11.576ZM12.667,7.333h-2a.667.667,0,1,1,0-1.333h2a.667.667,0,0,1,0,1.333Zm-10,0h-2A.667.667,0,1,1,.667,6h2a.667.667,0,1,1,0,1.333ZM9.5,4.505a.667.667,0,0,1-.471-1.138l1.414-1.415a.667.667,0,1,1,.943.943L9.967,4.31A.662.662,0,0,1,9.5,4.505Zm-5.657,0a.663.663,0,0,1-.472-.2L1.952,2.9A.667.667,0,0,1,2.9,1.952L4.31,3.367a.667.667,0,0,1-.472,1.139ZM6.667,3.334A.668.668,0,0,1,6,2.666v-2a.667.667,0,0,1,1.333,0v2A.668.668,0,0,1,6.667,3.334Z" fill="#23262f"/>
</svg>
