<svg xmlns="http://www.w3.org/2000/svg" width="47.923" height="47.923" viewBox="0 0 47.923 47.923">
  <g id="Frame_1017" data-name="Frame 1017" transform="translate(0 0)">
    <path id="Path" d="M22,0a1.876,1.876,0,0,1,1.917,2,24,24,0,0,1-1.744,7.187,24,24,0,0,1-5.2,7.786,24,24,0,0,1-7.786,5.2A24,24,0,0,1,2,23.917,1.876,1.876,0,0,1,0,22v-.8a2.174,2.174,0,0,1,2-2.1,19.2,19.2,0,0,0,5.351-1.357,19.2,19.2,0,0,0,6.229-4.162,19.2,19.2,0,0,0,4.162-6.229A19.2,19.2,0,0,0,19.1,2a2.174,2.174,0,0,1,2.1-2Z" transform="translate(24 24)" fill="#3772ff"/>
    <path id="Path-2" data-name="Path" d="M45.786,20.94a1.877,1.877,0,0,0,1.62-2.245A24,24,0,1,0,17.878,47.206a1.877,1.877,0,0,0,2.3-1.541l.139-.788a2.174,2.174,0,0,0-1.6-2.419A19.2,19.2,0,1,1,42.632,19.367a2.174,2.174,0,0,0,2.361,1.684Z" fill="#b1b5c3"/>
  </g>
</svg>
