<svg id="icons_Close_Circle_Line" data-name="icons/Close Circle/Line" xmlns="http://www.w3.org/2000/svg" width="20" height="20" viewBox="0 0 20 20">
  <path id="Shape" d="M10,20A10,10,0,1,1,20,10,10.011,10.011,0,0,1,10,20ZM10,2a8,8,0,1,0,8,8A8.009,8.009,0,0,0,10,2Z" transform="translate(0 0)" fill="#777e90"/>
  <path id="Shape-2" data-name="Shape" d="M1.707.293,4,2.586,6.293.293A1,1,0,0,1,7.707,1.707L5.414,4,7.707,6.293A1,1,0,0,1,6.293,7.707L4,5.414,1.707,7.707A1,1,0,0,1,.293,6.293L2.586,4,.293,1.707A1,1,0,0,1,1.707.293Z" transform="translate(6 6)" fill="#777e90"/>
</svg>
