<svg id="Frame_1069" data-name="Frame 1069" xmlns="http://www.w3.org/2000/svg" xmlns:xlink="http://www.w3.org/1999/xlink" width="48" height="48" viewBox="0 0 48 48">
  <defs>
    <clipPath id="clip-path">
      <rect id="Frame_1069_Background_Mask_" data-name="Frame 1069 (Background/Mask)" width="48" height="48" rx="24" fill="#9757d7"/>
    </clipPath>
  </defs>
  <rect id="Frame_1069_Background_Mask_2" data-name="Frame 1069 (Background/Mask)" width="48" height="48" rx="24" fill="#9757d7"/>
  <g id="Frame_1069-2" data-name="Frame 1069" clip-path="url(#clip-path)">
    <g id="icons_Coin_Line" data-name="icons/Coin/Line" transform="translate(14 14)">
      <path id="Shape" d="M10,20A10,10,0,1,1,20,10,10.011,10.011,0,0,1,10,20ZM10,2a8,8,0,1,0,8,8A8.009,8.009,0,0,0,10,2Z" transform="translate(0 0)" fill="#fcfcfd"/>
      <path id="Shape-2" data-name="Shape" d="M4,0A1,1,0,0,1,5,1,3,3,0,0,1,8,4,1,1,0,0,1,6,4,1,1,0,0,0,5,3H2.743a.743.743,0,0,0-.235,1.449L6.124,5.654A2.743,2.743,0,0,1,5.257,11H5a1,1,0,0,1-2,0A3,3,0,0,1,0,8,1,1,0,0,1,2,8,1,1,0,0,0,3,9H5.257a.743.743,0,0,0,.235-1.449L1.876,6.346A2.743,2.743,0,0,1,2.743,1H3A1,1,0,0,1,4,0Z" transform="translate(6 4)" fill="#fcfcfd"/>
    </g>
  </g>
</svg>
