<svg xmlns="http://www.w3.org/2000/svg" width="26.516" height="26.515" viewBox="0 0 26.516 26.515">
  <g id="layer2" transform="translate(-0.264 -0.265)">
    <path id="path824" d="M13.522.265A13.257,13.257,0,1,0,26.779,13.522,13.271,13.271,0,0,0,13.522.265Zm0,1.768a11.493,11.493,0,1,1-11.49,11.49,11.482,11.482,0,0,1,11.49-11.49ZM13.51,6.457a.884.884,0,0,0-.868.894v.744a2.888,2.888,0,0,0-2.648,2.779,3.16,3.16,0,0,0,1.167,2.519,6.612,6.612,0,0,0,2.087.972,5.8,5.8,0,0,1,1.561.685,1.156,1.156,0,0,1,.482,1.129c0,1.473-3.528,1.473-3.528,0a.884.884,0,1,0-1.768,0,2.893,2.893,0,0,0,2.648,2.781V19.7a.884.884,0,1,0,1.768,0V18.96a2.893,2.893,0,0,0,2.65-2.781A3.161,3.161,0,0,0,15.89,13.66a6.618,6.618,0,0,0-2.087-.974A5.8,5.8,0,0,1,12.243,12a1.156,1.156,0,0,1-.482-1.129c0-1.473,3.528-1.473,3.528,0a.885.885,0,1,0,1.769,0A2.892,2.892,0,0,0,14.409,8.1V7.351a.884.884,0,0,0-.9-.894Z" fill="#777e90"/>
  </g>
</svg>
