<svg id="Icons_Facebook_Line" data-name="Icons/Facebook/Line" xmlns="http://www.w3.org/2000/svg" width="25.055" height="25.055" viewBox="0 0 25.055 25.055">
  <path id="Vector" d="M12.527,25.055A12.527,12.527,0,1,1,25.055,12.527,12.542,12.542,0,0,1,12.527,25.055Zm0-22.549A10.022,10.022,0,1,0,22.549,12.527,10.033,10.033,0,0,0,12.527,2.505Z" fill="#777e90"/>
  <path id="Vector-2" data-name="Vector" d="M6.264,2.505H7.516A1.253,1.253,0,0,0,7.516,0H6.264A3.758,3.758,0,0,0,2.505,3.758V6.264H1.253a1.253,1.253,0,1,0,0,2.505H2.505v7.516a1.253,1.253,0,0,0,2.505,0V8.769H7.516a1.253,1.253,0,0,0,0-2.505H5.011V3.758A1.253,1.253,0,0,1,6.264,2.505Z" transform="translate(7.516 6.264)" fill="#777e90"/>
</svg>
