<svg id="Icons_Facebook_Line" data-name="Icons/Facebook/Line" xmlns="http://www.w3.org/2000/svg" width="16.667" height="16.667" viewBox="0 0 16.667 16.667">
  <path id="Vector" d="M8.333,16.667a8.333,8.333,0,1,1,8.333-8.333A8.343,8.343,0,0,1,8.333,16.667Zm0-15A6.667,6.667,0,1,0,15,8.333,6.674,6.674,0,0,0,8.333,1.666Z" fill="#777e90"/>
  <path id="Vector-2" data-name="Vector" d="M4.167,1.667H5A.833.833,0,0,0,5,0H4.167a2.5,2.5,0,0,0-2.5,2.5V4.167H.833a.833.833,0,1,0,0,1.667h.833v5a.833.833,0,0,0,1.667,0v-5H5A.833.833,0,0,0,5,4.167H3.333V2.5A.833.833,0,0,1,4.167,1.667Z" transform="translate(5 4.167)" fill="#777e90"/>
</svg>
