<svg xmlns="http://www.w3.org/2000/svg" width="40" height="40" viewBox="0 0 40 40">
  <g id="Group_416" data-name="Group 416" transform="translate(-6667 24320)">
    <rect id="share_icon_Background_Mask_" data-name="share icon (Background/Mask)" width="40" height="40" rx="20" transform="translate(6667 -24320)" fill="#3772ff"/>
    <path id="Shape" d="M13.567,11.748,18.29,4.664A3,3,0,0,0,15.794,0H3.005a3,3,0,0,0-2.5,4.664l4.723,7.084A1,1,0,0,1,5.4,12.3v5.284a3,3,0,0,0,4.59,2.544l2-1.25a3,3,0,0,0,1.41-2.544V12.3A1,1,0,0,1,13.567,11.748Z" transform="translate(6677.601 -24308)" fill="none" stroke="#fff" stroke-width="1"/>
  </g>
</svg>
