<svg xmlns="http://www.w3.org/2000/svg" width="10.57" height="10.571" viewBox="0 0 10.57 10.571">
  <path id="filter_1_" data-name="filter (1)" d="M10.657,0H.913A.413.413,0,0,0,.5.413,4.033,4.033,0,0,0,1.852,3.424L3.661,5.032a1.471,1.471,0,0,1,.493,1.1v4.027A.413.413,0,0,0,4.8,10.5L7.232,8.877a.413.413,0,0,0,.184-.344v-2.4a1.471,1.471,0,0,1,.493-1.1L9.718,3.424A4.033,4.033,0,0,0,11.07.413.413.413,0,0,0,10.657,0ZM9.169,2.807,7.361,4.415A2.3,2.3,0,0,0,6.59,6.131V8.312L4.98,9.386V6.131a2.3,2.3,0,0,0-.771-1.716L2.4,2.807A3.208,3.208,0,0,1,1.353.826h8.865A3.207,3.207,0,0,1,9.169,2.807Zm0,0" transform="translate(-0.5 0)" fill="#fff"/>
</svg>
