<svg id="icons_Circle_and_Square_Filled" data-name="icons/Circle and Square/Filled" xmlns="http://www.w3.org/2000/svg" width="14.667" height="13.23" viewBox="0 0 14.667 13.23">
  <path id="Shape" d="M12.667,11.1a3.312,3.312,0,0,1-.145,1.405,1.333,1.333,0,0,1-.583.583,3.312,3.312,0,0,1-1.405.145h-1.2v-4a2,2,0,0,0-4,0v4h-1.2a3.312,3.312,0,0,1-1.405-.145,1.333,1.333,0,0,1-.583-.583A3.312,3.312,0,0,1,2,11.1V4.541l-.99.594A.667.667,0,1,1,.324,3.992L3.668,1.985,6.233.44c.187-.112.33-.2.451-.263q.042-.023.084-.043a1.228,1.228,0,0,1,.279-.1,1.333,1.333,0,0,1,.574,0,1.226,1.226,0,0,1,.278.1q.044.02.086.044c.121.065.264.151.45.263L11,1.983l3.348,2.009a.667.667,0,0,1-.686,1.143l-.99-.594Z" transform="translate(0 0)" fill="#23262f"/>
</svg>
