<svg id="icons_Lightning_Line" data-name="icons/Lightning/Line" xmlns="http://www.w3.org/2000/svg" width="9.746" height="15.945" viewBox="0 0 9.746 15.945">
  <path id="Shape" d="M3.482,15.945A.612.612,0,0,1,3,15.7a.7.7,0,0,1-.128-.536l.786-5.194H.607A.592.592,0,0,1,.068,9.61a.712.712,0,0,1,.048-.694L5.782.279A.571.571,0,0,1,6.264,0a.611.611,0,0,1,.478.243A.7.7,0,0,1,6.87.779L6.084,5.972H9.139a.592.592,0,0,1,.539.363.712.712,0,0,1-.048.694L3.964,15.666A.571.571,0,0,1,3.482,15.945ZM5.251,3.366,1.791,8.639h3.3l-.6,3.94L7.954,7.306h-3.3Z" transform="translate(0)" fill="#fcfcfd"/>
</svg>
