<svg id="icons_Coins_Filled" data-name="icons/Coins/Filled" xmlns="http://www.w3.org/2000/svg" width="13.333" height="13.333" viewBox="0 0 13.333 13.333">
  <path id="Shape" d="M6.311,8.48a.276.276,0,0,0,.38-.1L8.745,4.667A4.667,4.667,0,0,0,4.078,0L.369,2.053a.276.276,0,0,0-.1.38l.121.207a.333.333,0,0,0,.052.067l5.6,5.6a.333.333,0,0,0,.067.052Z" transform="translate(4.588)" fill="#3772ff"/>
  <path id="Shape-2" data-name="Shape" d="M4.667,9.333A4.667,4.667,0,1,1,9.333,4.667,4.667,4.667,0,0,1,4.667,9.333Z" transform="translate(0 4)" fill="#3772ff"/>
</svg>
