<svg id="Left" xmlns="http://www.w3.org/2000/svg" width="40" height="40" viewBox="0 0 40 40">
  <g id="icons_Arrow_Left_2_Line" data-name="icons/Arrow Left 2/Line" transform="translate(13 15.5)">
    <path id="vector_Stroke_" data-name="vector (Stroke)" d="M10.5-.322l3.231-3.5a1,1,0,0,0,0-1.357L10.5-8.678a1,1,0,0,0-1.413-.057,1,1,0,0,0-.057,1.413L10.716-5.5H1a1,1,0,0,0-1,1,1,1,0,0,0,1,1h9.716L9.034-1.678A1,1,0,0,0,9.091-.265,1,1,0,0,0,10.5-.322Z" transform="translate(14 0) rotate(180)" fill="#777e90"/>
  </g>
  <g id="Oval" fill="none" stroke="#e6e8ec" stroke-width="2" stroke-dasharray="0 0">
    <circle cx="20" cy="20" r="20" stroke="none"/>
    <circle cx="20" cy="20" r="19" fill="none"/>
  </g>
</svg>
