<svg id="icons_File_Upload_Line" data-name="icons/File Upload/Line" xmlns="http://www.w3.org/2000/svg" width="20" height="20" viewBox="0 0 20 20">
  <path id="Shape" d="M10,20a1,1,0,0,1-1-1V16a1,1,0,1,1,2,0v3A1,1,0,0,1,10,20Zm6.364-2.636a.991.991,0,0,1-.707-.293L13.536,14.95a1,1,0,1,1,1.414-1.414l2.121,2.121a1,1,0,0,1-.707,1.707Zm-12.728,0a1,1,0,0,1-.707-1.708L5.05,13.535A1,1,0,1,1,6.465,14.95L4.343,17.071A.994.994,0,0,1,3.636,17.364ZM19,11H16a1,1,0,1,1,0-2h3a1,1,0,0,1,0,2ZM4,11H1A1,1,0,1,1,1,9H4a1,1,0,1,1,0,2ZM14.243,6.758a1,1,0,0,1-.707-1.707l2.121-2.122a1,1,0,1,1,1.414,1.415L14.95,6.465A.994.994,0,0,1,14.243,6.758Zm-8.485,0a.994.994,0,0,1-.707-.293L2.929,4.343A1,1,0,0,1,4.343,2.929L6.465,5.05a1,1,0,0,1-.707,1.708ZM10,5A1,1,0,0,1,9,4V1a1,1,0,1,1,2,0V4A1,1,0,0,1,10,5Z" transform="translate(0 0)" fill="#fcfcfd"/>
</svg>
