<svg id="icons_Plus_Square_Line" data-name="icons/Plus Square/Line" xmlns="http://www.w3.org/2000/svg" width="20" height="20" viewBox="0 0 20 20">
  <path id="Shape" d="M10,20a41.821,41.821,0,0,1-5.458-.369A4.8,4.8,0,0,1,.369,15.458,41.8,41.8,0,0,1,0,10,41.821,41.821,0,0,1,.369,4.541,4.8,4.8,0,0,1,4.541.369,41.821,41.821,0,0,1,10,0a41.8,41.8,0,0,1,5.458.369,4.8,4.8,0,0,1,4.172,4.172A41.821,41.821,0,0,1,20,10a41.8,41.8,0,0,1-.369,5.458,4.8,4.8,0,0,1-4.172,4.172A41.8,41.8,0,0,1,10,20ZM10,2a39.859,39.859,0,0,0-5.2.352A2.819,2.819,0,0,0,2.352,4.8,39.859,39.859,0,0,0,2,10a39.859,39.859,0,0,0,.352,5.2A2.819,2.819,0,0,0,4.8,17.648,39.859,39.859,0,0,0,10,18a39.859,39.859,0,0,0,5.2-.352A2.819,2.819,0,0,0,17.648,15.2,39.859,39.859,0,0,0,18,10a39.859,39.859,0,0,0-.352-5.2A2.819,2.819,0,0,0,15.2,2.352,39.859,39.859,0,0,0,10,2Z" fill="#b1b5c3"/>
  <path id="Path_1" data-name="Path 1" d="M5,0h7.437C15.2,0,16,2.3,16,5.139v7.195a5.071,5.071,0,0,1-5,5.139H5A5.968,5.968,0,0,1-.592,11.922L0,3.5C0,.661,2.239,0,5,0Z" transform="translate(2.125 1.527)" fill="#b1b5c3"/>
  <path id="minus" d="M7.642.168H.559A.559.559,0,0,0,0,.727V1.1a.559.559,0,0,0,.559.559H7.642A.559.559,0,0,0,8.2,1.1V.727A.559.559,0,0,0,7.642.168Zm0,0" transform="translate(5.899 9.086)" fill="#fff"/>
</svg>
