<svg id="icons_Info_Circle_Line" data-name="icons/Info Circle/Line" xmlns="http://www.w3.org/2000/svg" width="26.666" height="26.666" viewBox="0 0 26.666 26.666">
  <path id="Shape" d="M13.333,26.666A13.333,13.333,0,1,1,26.666,13.333,13.348,13.348,0,0,1,13.333,26.666Zm0-24A10.667,10.667,0,1,0,24,13.333,10.679,10.679,0,0,0,13.333,2.666Z" fill="#ef466f"/>
  <path id="Shape-2" data-name="Shape" d="M1.333,13.333A1.335,1.335,0,0,1,0,12V6.667a1.333,1.333,0,1,1,2.666,0V12A1.335,1.335,0,0,1,1.333,13.333Zm0-10.667A1.333,1.333,0,1,1,2.666,1.333,1.335,1.335,0,0,1,1.333,2.666Z" transform="translate(12 6.667)" fill="#ef466f"/>
</svg>
