<svg id="share" xmlns="http://www.w3.org/2000/svg" width="48" height="48" viewBox="0 0 48 48">
  <g id="share_Background_Mask_" data-name="share (Background/Mask)" fill="none" stroke="#e6e8ec" stroke-width="2" stroke-dasharray="0 0">
    <rect width="48" height="48" rx="24" stroke="none"/>
    <rect x="1" y="1" width="46" height="46" rx="23" fill="none"/>
  </g>
  <g id="Icons_Pinterest_Line" data-name="Icons/Pinterest/Line" transform="translate(14 14)">
    <path id="Vector" d="M10,20A10,10,0,1,1,20,10,10.011,10.011,0,0,1,10,20ZM10,2a8,8,0,1,0,8,8A8.009,8.009,0,0,0,10,2Z" transform="translate(0 0)" fill="#777e90"/>
    <path id="Vector-2" data-name="Vector" d="M2.457,7.553a1,1,0,0,1-1.789.894A6.032,6.032,0,0,1,.685,2.9,5.818,5.818,0,0,1,6.062,0a5.212,5.212,0,0,1,4.369,2.17,6.3,6.3,0,0,1,1.085,4.35,5.261,5.261,0,0,1-2.224,3.855,5.488,5.488,0,0,1-4.355.611l-.912,3.282A1,1,0,1,1,2.1,13.732L3.278,9.487l.005-.019L4.6,4.732a1,1,0,1,1,1.927.535L5.474,9.056a3.47,3.47,0,0,0,2.716-.35,3.27,3.27,0,0,0,1.34-2.414,4.306,4.306,0,0,0-.721-2.954A3.216,3.216,0,0,0,6.062,2,3.833,3.833,0,0,0,2.44,3.854,4.035,4.035,0,0,0,2.457,7.553Z" transform="translate(4.438 4)" fill="#777e90"/>
  </g>
</svg>
