<svg id="icons_Plus_Square_Line" data-name="icons/Plus Square/Line" xmlns="http://www.w3.org/2000/svg" width="20" height="20" viewBox="0 0 20 20">
  <path id="Shape" d="M10,20a41.821,41.821,0,0,1-5.458-.369A4.8,4.8,0,0,1,.369,15.458,41.8,41.8,0,0,1,0,10,41.821,41.821,0,0,1,.369,4.541,4.8,4.8,0,0,1,4.541.369,41.821,41.821,0,0,1,10,0a41.8,41.8,0,0,1,5.458.369,4.8,4.8,0,0,1,4.172,4.172A41.821,41.821,0,0,1,20,10a41.8,41.8,0,0,1-.369,5.458,4.8,4.8,0,0,1-4.172,4.172A41.8,41.8,0,0,1,10,20ZM10,2a39.859,39.859,0,0,0-5.2.352A2.819,2.819,0,0,0,2.352,4.8,39.859,39.859,0,0,0,2,10a39.859,39.859,0,0,0,.352,5.2A2.819,2.819,0,0,0,4.8,17.648,39.859,39.859,0,0,0,10,18a39.859,39.859,0,0,0,5.2-.352A2.819,2.819,0,0,0,17.648,15.2,39.859,39.859,0,0,0,18,10a39.859,39.859,0,0,0-.352-5.2A2.819,2.819,0,0,0,15.2,2.352,39.859,39.859,0,0,0,10,2Z" fill="#b1b5c3"/>
  <path id="Shape-2" data-name="Shape" d="M6,9V6H9A1,1,0,0,0,9,4H6V1A1,1,0,0,0,4,1V4H1A1,1,0,0,0,1,6H4V9A1,1,0,0,0,6,9Z" transform="translate(5 5)" fill="#b1b5c3"/>
</svg>
