<svg id="Frame_1017" data-name="Frame 1017" xmlns="http://www.w3.org/2000/svg" width="48" height="48" viewBox="0 0 48 48">
  <g id="Frame_1017_Background_Mask_" data-name="Frame 1017 (Background/Mask)" fill="none" stroke="#ef466f" stroke-width="2" stroke-dasharray="0 0">
    <rect width="48" height="48" rx="24" stroke="none"/>
    <rect x="1" y="1" width="46" height="46" rx="23" fill="none"/>
  </g>
  <g id="icons_File_Upload_Line" data-name="icons/File Upload/Line" transform="translate(12 12)">
    <path id="Shape" d="M14,22H4a4,4,0,0,1-4-4V4A4,4,0,0,1,4,0h8.344a4.024,4.024,0,0,1,2.828,1.172l1.657,1.657A4.024,4.024,0,0,1,18,5.657V18A4,4,0,0,1,14,22ZM4,2A2,2,0,0,0,2,4V18a2,2,0,0,0,2,2H14a2,2,0,0,0,2-2V7H14a3,3,0,0,1-3-3V2Zm9,.111V4a1,1,0,0,0,1,1h1.889a2.024,2.024,0,0,0-.475-.758L13.757,2.586A2.024,2.024,0,0,0,13,2.111Z" transform="translate(3 1)" fill="#777e90"/>
    <path id="Shape-2" data-name="Shape" d="M3.293.293l-3,3A1,1,0,0,0,1.707,4.707L3,3.414V8A1,1,0,1,0,5,8V3.414L6.293,4.707A1,1,0,0,0,7.707,3.293l-3-3a1,1,0,0,0-1.414,0Z" transform="translate(8 9)" fill="#777e90"/>
  </g>
</svg>
