<svg id="info_2_" data-name="info (2)" xmlns="http://www.w3.org/2000/svg" width="26" height="26" viewBox="0 0 26 26">
  <g id="Group_411" data-name="Group 411">
    <g id="Group_410" data-name="Group 410">
      <path id="Path_1" data-name="Path 1" d="M13,0A13,13,0,1,0,26,13,12.993,12.993,0,0,0,13,0Zm0,24.186A11.186,11.186,0,1,1,24.186,13,11.2,11.2,0,0,1,13,24.186Z" fill="#777e90"/>
    </g>
  </g>
  <g id="Group_413" data-name="Group 413" transform="translate(11.683 10.837)">
    <g id="Group_412" data-name="Group 412">
      <path id="Path_2" data-name="Path 2" d="M231.377,213.4c-.77,0-1.318.325-1.318.8v6.52c0,.411.548.821,1.318.821.736,0,1.335-.411,1.335-.821V214.2C232.711,213.722,232.112,213.4,231.377,213.4Z" transform="translate(-230.059 -213.397)" fill="#777e90"/>
    </g>
  </g>
  <g id="Group_415" data-name="Group 415" transform="translate(11.597 6.815)">
    <g id="Group_414" data-name="Group 414">
      <path id="Path_3" data-name="Path 3" d="M229.778,134.208a1.233,1.233,0,1,0,1.386,1.215A1.325,1.325,0,0,0,229.778,134.208Z" transform="translate(-228.375 -134.208)" fill="#777e90"/>
    </g>
  </g>
</svg>
