<svg xmlns="http://www.w3.org/2000/svg" width="48" height="48" viewBox="0 0 48 48">
  <g id="Group_404" data-name="Group 404" transform="translate(22647 12521)">
    <g id="share_Background_Mask_" data-name="share (Background/Mask)" transform="translate(-22647 -12521)" fill="none" stroke="#e6e8ec" stroke-width="2" stroke-dasharray="0 0">
      <rect width="48" height="48" rx="24" stroke="none"/>
      <rect x="1" y="1" width="46" height="46" rx="23" fill="none"/>
    </g>
    <path id="Shape" d="M5.053,2c-.753.04-1.349.089-1.815.138a1.106,1.106,0,0,0-1.069,1A33.907,33.907,0,0,0,2,6.907a33.907,33.907,0,0,0,.17,3.767,1.1,1.1,0,0,0,1.067,1A56.569,56.569,0,0,0,9,11.907a56.569,56.569,0,0,0,5.763-.23,1.1,1.1,0,0,0,1.067-1A33.907,33.907,0,0,0,16,6.907a33.907,33.907,0,0,0-.17-3.767,1.106,1.106,0,0,0-1.069-1C14.3,2.088,13.7,2.039,12.947,2a1,1,0,0,1,.106-2c.783.042,1.414.093,1.918.147a3.1,3.1,0,0,1,2.846,2.765A35.834,35.834,0,0,1,18,6.907a35.834,35.834,0,0,1-.183,3.994,3.1,3.1,0,0,1-2.844,2.765A58.464,58.464,0,0,1,9,13.907a58.464,58.464,0,0,1-5.973-.241A3.1,3.1,0,0,1,.183,10.9,35.835,35.835,0,0,1,0,6.907,35.835,35.835,0,0,1,.183,2.913,3.1,3.1,0,0,1,3.029.148C3.533.095,4.164.043,4.947,0a1,1,0,0,1,.106,2Z" transform="translate(-22632 -12499.907)" fill="#777e90"/>
    <path id="Shape-2" data-name="Shape" d="M-5.207.293a1,1,0,0,1,1.414,0l3.5,3.5a1,1,0,0,1,0,1.414l-3.5,3.5a1,1,0,0,1-1.414,0,1,1,0,0,1,0-1.414L-3.414,5.5H-13a1,1,0,0,1-1-1,1,1,0,0,1,1-1h9.586L-5.207,1.707A1,1,0,0,1-5.207.293Z" transform="translate(-22627.5 -12508) rotate(-90)" fill="#777e90"/>
  </g>
</svg>
