<svg id="share_icon" data-name="share icon" xmlns="http://www.w3.org/2000/svg" width="40" height="40" viewBox="0 0 40 40">
  <g id="share_icon_Background_Mask_" data-name="share icon (Background/Mask)" fill="none" stroke="#e6e8ec" stroke-width="2" stroke-dasharray="0 0">
    <rect width="40" height="40" rx="20" stroke="none"/>
    <rect x="1" y="1" width="38" height="38" rx="19" fill="none"/>
  </g>
  <g id="icons_More_Line" data-name="icons/More/Line" transform="translate(12.5 18.333)">
    <path id="Vector" d="M13.333,3.333A1.667,1.667,0,1,1,15,1.666,1.668,1.668,0,0,1,13.333,3.333Zm-5.833,0A1.667,1.667,0,1,1,9.166,1.666,1.668,1.668,0,0,1,7.5,3.333Zm-5.834,0A1.667,1.667,0,1,1,3.333,1.666,1.668,1.668,0,0,1,1.666,3.333Z" fill="#777e90"/>
  </g>
</svg>
