<svg id="Icons_Twitter_Line" data-name="Icons/Twitter/Line" xmlns="http://www.w3.org/2000/svg" width="18.202" height="15" viewBox="0 0 18.202 15">
  <path id="Vector" d="M7.433,15c-2.24,0-5.29-.533-7.1-3.071a1.709,1.709,0,0,1-.139-1.8A1.753,1.753,0,0,1,1.75,9.166h.189A8.221,8.221,0,0,1,.354,4.75a6.069,6.069,0,0,1,.5-2.817A1.694,1.694,0,0,1,2.434.909a1.756,1.756,0,0,1,1.387.662A7.308,7.308,0,0,0,6.093,3.326a8.431,8.431,0,0,0,1.336.556,5.563,5.563,0,0,1,.231-.958A4.186,4.186,0,0,1,9.108.88,4.732,4.732,0,0,1,12.017,0a6.31,6.31,0,0,1,1.888.331,6.174,6.174,0,0,1,.96.4l1.24-.248a1.818,1.818,0,0,1,.356-.036,1.752,1.752,0,0,1,1.553,2.535l-.939,1.878a8.7,8.7,0,0,1-2.2,6.865A9.947,9.947,0,0,1,7.433,15ZM2.449,2.574a.081.081,0,0,0-.074.047,5.421,5.421,0,0,0,.177,4.288A5.344,5.344,0,0,0,5.594,9.946a.085.085,0,0,1,.058.072.078.078,0,0,1-.039.077,8.482,8.482,0,0,1-3.858.737.081.081,0,0,0-.073.044.08.08,0,0,0,.006.084A5.1,5.1,0,0,0,3.676,12.6a8.712,8.712,0,0,0,3.757.734,8.2,8.2,0,0,0,6.333-2.871A7.252,7.252,0,0,0,15.2,7.76a7,7,0,0,0,.151-3.15.089.089,0,0,1,.008-.052l1.162-2.323a.084.084,0,0,0-.074-.121l-.017,0-1.873.375-.016,0a.089.089,0,0,1-.06-.023,4.6,4.6,0,0,0-2.468-.8,2.846,2.846,0,0,0-2.276.892,4.215,4.215,0,0,0-.657,3.176.086.086,0,0,1-.02.069A.084.084,0,0,1,9,5.833,9.485,9.485,0,0,1,2.515,2.606.083.083,0,0,0,2.449,2.574Z" transform="translate(0)" fill="#777e90"/>
</svg>
