<svg id="Icons_Twitter_Line" data-name="Icons/Twitter/Line" xmlns="http://www.w3.org/2000/svg" width="25.055" height="20.647" viewBox="0 0 25.055 20.647">
  <path id="Vector" d="M10.232,20.647c-3.083,0-7.281-.733-9.775-4.227a2.352,2.352,0,0,1-.191-2.48,2.412,2.412,0,0,1,2.143-1.323l.248,0H2.67A11.316,11.316,0,0,1,.488,6.539a8.354,8.354,0,0,1,.693-3.877,2.332,2.332,0,0,1,2.17-1.41,2.418,2.418,0,0,1,1.91.911A10.059,10.059,0,0,0,8.387,4.579a11.605,11.605,0,0,0,1.839.765,7.658,7.658,0,0,1,.318-1.318,5.762,5.762,0,0,1,1.994-2.814,6.514,6.514,0,0,1,4-1.211,8.686,8.686,0,0,1,2.6.456,8.5,8.5,0,0,1,1.321.549L22.17.664a2.5,2.5,0,0,1,.49-.049A2.412,2.412,0,0,1,24.8,4.1L23.5,6.689a11.971,11.971,0,0,1-3.024,9.45A13.692,13.692,0,0,1,10.232,20.647Zm-6.86-17.1a.112.112,0,0,0-.1.065,7.462,7.462,0,0,0,.244,5.9A7.355,7.355,0,0,0,7.7,13.691a.117.117,0,0,1,.08.1.107.107,0,0,1-.054.106C6.01,14.9,3.305,14.909,2.417,14.912a.112.112,0,0,0-.1.061.109.109,0,0,0,.008.115,7.021,7.021,0,0,0,2.737,2.255,11.993,11.993,0,0,0,5.171,1.01A11.292,11.292,0,0,0,18.949,14.4a9.983,9.983,0,0,0,1.979-3.719,9.629,9.629,0,0,0,.208-4.335.123.123,0,0,1,.01-.072l1.6-3.2a.115.115,0,0,0-.1-.166l-.023,0-2.578.516-.022,0a.122.122,0,0,1-.082-.032,6.338,6.338,0,0,0-3.4-1.106,3.918,3.918,0,0,0-3.134,1.227c-1.241,1.447-1.006,3.711-.9,4.371a.118.118,0,0,1-.027.1.116.116,0,0,1-.088.041A13.056,13.056,0,0,1,3.462,3.587.115.115,0,0,0,3.372,3.543Z" transform="translate(0)" fill="#777e90"/>
</svg>
