<svg xmlns="http://www.w3.org/2000/svg" width="18" height="22" viewBox="0 0 18 22">
  <g id="Group_15118" data-name="Group 15118" transform="translate(-2085 929)">
    <path id="Shape" d="M14,22H4a4,4,0,0,1-4-4V4A4,4,0,0,1,4,0h8.344a4.024,4.024,0,0,1,2.828,1.172l1.657,1.657A4.024,4.024,0,0,1,18,5.657V18A4,4,0,0,1,14,22ZM4,2A2,2,0,0,0,2,4V18a2,2,0,0,0,2,2H14a2,2,0,0,0,2-2V7H14a3,3,0,0,1-3-3V2Zm9,.111V4a1,1,0,0,0,1,1h1.889a2.024,2.024,0,0,0-.475-.758L13.757,2.586A2.024,2.024,0,0,0,13,2.111Z" transform="translate(2085 -929)" fill="#fff"/>
    <g id="Icon_feather-arrow-up" data-name="Icon feather-arrow-up" transform="translate(2083.49 -928.51)">
      <path id="Path_28937" data-name="Path 28937" d="M18,13.521V7.5" transform="translate(-7.49)" fill="none" stroke="#fff" stroke-linecap="round" stroke-linejoin="round" stroke-width="1.5"/>
      <path id="Path_28938" data-name="Path 28938" d="M7.5,10.51,10.51,7.5l3.01,3.01" fill="none" stroke="#fff" stroke-linecap="round" stroke-linejoin="round" stroke-width="1.5"/>
    </g>
  </g>
</svg>
