<svg id="user" xmlns="http://www.w3.org/2000/svg" width="40" height="40" viewBox="0 0 40 40">
  <rect id="user_Background_" data-name="user (Background)" width="40" height="40" rx="20" fill="#45b26b"/>
  <g id="icons_Stop_Line" data-name="icons/Stop/Line" transform="translate(10 10)">
    <path id="Shape" d="M10,20a41.821,41.821,0,0,1-5.458-.369A4.8,4.8,0,0,1,.369,15.458,41.8,41.8,0,0,1,0,10,41.821,41.821,0,0,1,.369,4.541,4.8,4.8,0,0,1,4.541.369,41.821,41.821,0,0,1,10,0a41.8,41.8,0,0,1,5.458.369,4.8,4.8,0,0,1,4.172,4.172A41.821,41.821,0,0,1,20,10a41.8,41.8,0,0,1-.369,5.458,4.8,4.8,0,0,1-4.172,4.172A41.8,41.8,0,0,1,10,20ZM10,2a39.859,39.859,0,0,0-5.2.352A2.819,2.819,0,0,0,2.352,4.8,39.859,39.859,0,0,0,2,10a39.859,39.859,0,0,0,.352,5.2A2.819,2.819,0,0,0,4.8,17.648,39.859,39.859,0,0,0,10,18a39.859,39.859,0,0,0,5.2-.352A2.819,2.819,0,0,0,17.648,15.2,39.859,39.859,0,0,0,18,10a39.859,39.859,0,0,0-.352-5.2A2.819,2.819,0,0,0,15.2,2.352,39.859,39.859,0,0,0,10,2Z" transform="translate(0 0)" fill="#fcfcfd"/>
  </g>
</svg>
